<svg xmlns="http://www.w3.org/2000/svg" viewBox="0 0 800 470" width="800" height="470" role="img" aria-label="Halaman Settings Advanced Security: Dependency graph, Dependabot alerts, security updates, tombol Enable untuk version updates, dan CodeQL analysis dengan tombol Set up pilihan Default"><title>Halaman Settings Advanced Security: Dependency graph, Dependabot alerts, security updates, tombol Enable untuk version updates, dan CodeQL analysis dengan tombol Set up pilihan Default</title><defs><marker id="ujung" viewBox="0 0 10 10" refX="9" refY="5" markerWidth="7" markerHeight="7" orient="auto-start-reverse"><path d="M0 0 L10 5 L0 10 z" fill="#e11d48"/></marker></defs><rect x="0.5" y="0.5" width="799" height="469" rx="10" fill="#ffffff" stroke="#d0d7de"/><path d="M0.5 10.5 a10 10 0 0 1 10 -10 h779 a10 10 0 0 1 10 10 v26 h-799 z" fill="#f6f8fa" stroke="#d0d7de"/><circle cx="18" cy="18" r="5" fill="#ff5f57"/><circle cx="34" cy="18" r="5" fill="#febc2e"/><circle cx="50" cy="18" r="5" fill="#28c840"/><rect x="80" y="8" width="640" height="20" rx="10" fill="#fff" stroke="#d0d7de"/><text x="400.0" y="22" font-family="system-ui,-apple-system,Segoe UI,Helvetica,Arial,sans-serif" font-size="12" fill="#59636e" text-anchor="middle">github.com/budi/toko/settings</text><path d="M22 47 h8 l4 4 v12 h-12 z" fill="none" stroke="#59636e"/><text x="42" y="60" font-family="system-ui,-apple-system,Segoe UI,Helvetica,Arial,sans-serif" font-size="18" fill="#0969da" text-anchor="start">budi / </text><text x="106.39999999999999" y="60" font-family="system-ui,-apple-system,Segoe UI,Helvetica,Arial,sans-serif" font-size="18" fill="#0969da" text-anchor="start" font-weight="600">toko</text><rect x="158.39999999999998" y="45" width="58" height="20" rx="10" fill="#ffffff" stroke="#d0d7de"/><text x="187.39999999999998" y="59" font-family="system-ui,-apple-system,Segoe UI,Helvetica,Arial,sans-serif" font-size="12" fill="#59636e" text-anchor="middle">Public</text><text x="41.6" y="101" font-family="system-ui,-apple-system,Segoe UI,Helvetica,Arial,sans-serif" font-size="13" fill="#1f2328" text-anchor="middle">Code</text><text x="100.1" y="101" font-family="system-ui,-apple-system,Segoe UI,Helvetica,Arial,sans-serif" font-size="13" fill="#1f2328" text-anchor="middle">Issues</text><text x="191.45" y="101" font-family="system-ui,-apple-system,Segoe UI,Helvetica,Arial,sans-serif" font-size="13" fill="#1f2328" text-anchor="middle">Pull requests</text><text x="286.45" y="101" font-family="system-ui,-apple-system,Segoe UI,Helvetica,Arial,sans-serif" font-size="13" fill="#1f2328" text-anchor="middle">Actions</text><text x="363.2" y="101" font-family="system-ui,-apple-system,Segoe UI,Helvetica,Arial,sans-serif" font-size="13" fill="#1f2328" text-anchor="middle">Projects</text><text x="429.0" y="101" font-family="system-ui,-apple-system,Segoe UI,Helvetica,Arial,sans-serif" font-size="13" fill="#1f2328" text-anchor="middle">Wiki</text><text x="538.5999999999999" y="101" font-family="system-ui,-apple-system,Segoe UI,Helvetica,Arial,sans-serif" font-size="13" fill="#1f2328" text-anchor="middle">Security and quality</text><text x="662.8" y="101" font-family="system-ui,-apple-system,Segoe UI,Helvetica,Arial,sans-serif" font-size="13" fill="#1f2328" text-anchor="middle">Insights</text><rect x="706.9999999999999" y="110" width="72.4" height="3" rx="1.5" fill="#fd8c73"/><text x="743.1999999999999" y="101" font-family="system-ui,-apple-system,Segoe UI,Helvetica,Arial,sans-serif" font-size="13" fill="#1f2328" text-anchor="middle" font-weight="600">Settings</text><line x1="0" y1="113" x2="800" y2="113" stroke="#d0d7de"/><text x="26" y="145" font-family="system-ui,-apple-system,Segoe UI,Helvetica,Arial,sans-serif" font-size="12" fill="#59636e" text-anchor="start" font-weight="600">Security and quality</text><rect x="20" y="159" width="170" height="28" rx="6" fill="#f6f8fa" stroke="#f6f8fa"/><rect x="20" y="163" width="3" height="20" rx="1.5" fill="#fd8c73"/><text x="32" y="178" font-family="system-ui,-apple-system,Segoe UI,Helvetica,Arial,sans-serif" font-size="13" fill="#1f2328" text-anchor="start" font-weight="600">Advanced Security</text><circle cx="186" cy="173" r="12" fill="#e11d48" stroke="#ffffff" stroke-width="2"/><text x="186" y="177.5" font-family="system-ui,-apple-system,Segoe UI,Helvetica,Arial,sans-serif" font-size="13" fill="#ffffff" text-anchor="middle" font-weight="600">1</text><line x1="205" y1="125" x2="205" y2="460" stroke="#d0d7de"/><text x="225" y="150" font-family="system-ui,-apple-system,Segoe UI,Helvetica,Arial,sans-serif" font-size="18" fill="#1f2328" text-anchor="start" font-weight="600">Advanced Security</text><line x1="225" y1="172" x2="780" y2="172" stroke="#d0d7de"/><text x="225" y="199" font-family="system-ui,-apple-system,Segoe UI,Helvetica,Arial,sans-serif" font-size="14" fill="#1f2328" text-anchor="start" font-weight="600">Dependency graph</text><rect x="720" y="183" width="40" height="22" rx="11" fill="#1f883d"/><circle cx="749" cy="194" r="8" fill="#ffffff"/><line x1="225" y1="216" x2="780" y2="216" stroke="#d0d7de"/><text x="225" y="243" font-family="system-ui,-apple-system,Segoe UI,Helvetica,Arial,sans-serif" font-size="14" fill="#1f2328" text-anchor="start" font-weight="600">Dependabot alerts</text><rect x="720" y="227" width="40" height="22" rx="11" fill="#1f883d"/><circle cx="749" cy="238" r="8" fill="#ffffff"/><line x1="225" y1="260" x2="780" y2="260" stroke="#d0d7de"/><text x="225" y="287" font-family="system-ui,-apple-system,Segoe UI,Helvetica,Arial,sans-serif" font-size="14" fill="#1f2328" text-anchor="start" font-weight="600">Dependabot security updates</text><rect x="720" y="271" width="40" height="22" rx="11" fill="#1f883d"/><circle cx="749" cy="282" r="8" fill="#ffffff"/><line x1="225" y1="304" x2="780" y2="304" stroke="#d0d7de"/><text x="225" y="331" font-family="system-ui,-apple-system,Segoe UI,Helvetica,Arial,sans-serif" font-size="14" fill="#1f2328" text-anchor="start" font-weight="600">Dependabot version updates</text><rect x="690" y="312" width="80" height="28" rx="6" fill="#f6f8fa" stroke="#d0d7de"/><text x="730.0" y="330.5" font-family="system-ui,-apple-system,Segoe UI,Helvetica,Arial,sans-serif" font-size="13" fill="#1f2328" text-anchor="middle" font-weight="600">Enable</text><circle cx="700" cy="238" r="12" fill="#e11d48" stroke="#ffffff" stroke-width="2"/><text x="700" y="242.5" font-family="system-ui,-apple-system,Segoe UI,Helvetica,Arial,sans-serif" font-size="13" fill="#ffffff" text-anchor="middle" font-weight="600">2</text><circle cx="700" cy="282" r="12" fill="#e11d48" stroke="#ffffff" stroke-width="2"/><text x="700" y="286.5" font-family="system-ui,-apple-system,Segoe UI,Helvetica,Arial,sans-serif" font-size="13" fill="#ffffff" text-anchor="middle" font-weight="600">3</text><line x1="225" y1="348" x2="780" y2="348" stroke="#d0d7de"/><text x="225" y="375" font-family="system-ui,-apple-system,Segoe UI,Helvetica,Arial,sans-serif" font-size="14" fill="#1f2328" text-anchor="start" font-weight="600">CodeQL analysis</text><rect x="690" y="357" width="80" height="28" rx="6" fill="#f6f8fa" stroke="#d0d7de"/><text x="730.0" y="375.5" font-family="system-ui,-apple-system,Segoe UI,Helvetica,Arial,sans-serif" font-size="13" fill="#1f2328" text-anchor="middle" font-weight="600">Set up</text><rect x="620" y="390" width="150" height="36" rx="6" fill="#ffffff" stroke="#d0d7de"/><text x="634" y="413" font-family="system-ui,-apple-system,Segoe UI,Helvetica,Arial,sans-serif" font-size="13" fill="#1f2328" text-anchor="start" font-weight="600">Default</text><circle cx="598" cy="408" r="12" fill="#e11d48" stroke="#ffffff" stroke-width="2"/><text x="598" y="412.5" font-family="system-ui,-apple-system,Segoe UI,Helvetica,Arial,sans-serif" font-size="13" fill="#ffffff" text-anchor="middle" font-weight="600">4</text></svg>
