<svg xmlns="http://www.w3.org/2000/svg" viewBox="0 0 800 350" width="800" height="350" role="img" aria-label="Halaman profil budi dengan README profil dari repositori budi/budi tampil di atas daftar repositori"><title>Halaman profil budi dengan README profil dari repositori budi/budi tampil di atas daftar repositori</title><defs><marker id="ujung" viewBox="0 0 10 10" refX="9" refY="5" markerWidth="7" markerHeight="7" orient="auto-start-reverse"><path d="M0 0 L10 5 L0 10 z" fill="#e11d48"/></marker></defs><rect x="0.5" y="0.5" width="799" height="349" rx="10" fill="#ffffff" stroke="#d0d7de"/><path d="M0.5 10.5 a10 10 0 0 1 10 -10 h779 a10 10 0 0 1 10 10 v26 h-799 z" fill="#f6f8fa" stroke="#d0d7de"/><circle cx="18" cy="18" r="5" fill="#ff5f57"/><circle cx="34" cy="18" r="5" fill="#febc2e"/><circle cx="50" cy="18" r="5" fill="#28c840"/><rect x="80" y="8" width="640" height="20" rx="10" fill="#fff" stroke="#d0d7de"/><text x="400.0" y="22" font-family="system-ui,-apple-system,Segoe UI,Helvetica,Arial,sans-serif" font-size="12" fill="#59636e" text-anchor="middle">github.com/budi</text><circle cx="120" cy="130" r="62" fill="#d0d7de"/><text x="120" y="145" font-family="system-ui,-apple-system,Segoe UI,Helvetica,Arial,sans-serif" font-size="44" fill="#ffffff" text-anchor="middle" font-weight="600">B</text><text x="40" y="228" font-family="system-ui,-apple-system,Segoe UI,Helvetica,Arial,sans-serif" font-size="20" fill="#1f2328" text-anchor="start" font-weight="600">Budi Santoso</text><text x="40" y="252" font-family="system-ui,-apple-system,Segoe UI,Helvetica,Arial,sans-serif" font-size="16" fill="#59636e" text-anchor="start">budi</text><text x="40" y="280" font-family="system-ui,-apple-system,Segoe UI,Helvetica,Arial,sans-serif" font-size="13" fill="#1f2328" text-anchor="start">Belajar web di BisaNgoding</text><rect x="250" y="62" width="520" height="100" rx="6" fill="#ffffff" stroke="#d0d7de"/><text x="264" y="80" font-family="ui-monospace,SFMono-Regular,Menlo,monospace" font-size="12" fill="#59636e" text-anchor="start">budi / README.md</text><text x="264" y="106" font-family="system-ui,-apple-system,Segoe UI,Helvetica,Arial,sans-serif" font-size="17" fill="#1f2328" text-anchor="start" font-weight="600">Halo, saya Budi</text><text x="264" y="128" font-family="system-ui,-apple-system,Segoe UI,Helvetica,Arial,sans-serif" font-size="13" fill="#1f2328" text-anchor="start">Junior web developer dari Bandung.</text><text x="264" y="150" font-family="system-ui,-apple-system,Segoe UI,Helvetica,Arial,sans-serif" font-size="13" fill="#1f2328" text-anchor="start">Sedang belajar JavaScript dan Git.</text><rect x="250" y="174" width="520" height="64" rx="6" fill="#ffffff" stroke="#d0d7de"/><text x="266" y="200" font-family="system-ui,-apple-system,Segoe UI,Helvetica,Arial,sans-serif" font-size="15" fill="#0969da" text-anchor="start" font-weight="600">toko</text><rect x="316.0" y="185" width="54" height="20" rx="10" fill="#ffffff" stroke="#d0d7de"/><text x="343.0" y="199" font-family="system-ui,-apple-system,Segoe UI,Helvetica,Arial,sans-serif" font-size="12" fill="#59636e" text-anchor="middle">Public</text><text x="266" y="224" font-family="system-ui,-apple-system,Segoe UI,Helvetica,Arial,sans-serif" font-size="13" fill="#59636e" text-anchor="start">Toko online sederhana</text><rect x="250" y="250" width="520" height="64" rx="6" fill="#ffffff" stroke="#d0d7de"/><text x="266" y="276" font-family="system-ui,-apple-system,Segoe UI,Helvetica,Arial,sans-serif" font-size="15" fill="#0969da" text-anchor="start" font-weight="600">portofolio</text><rect x="373.0" y="261" width="54" height="20" rx="10" fill="#ffffff" stroke="#d0d7de"/><text x="400.0" y="275" font-family="system-ui,-apple-system,Segoe UI,Helvetica,Arial,sans-serif" font-size="12" fill="#59636e" text-anchor="middle">Public</text><text x="266" y="300" font-family="system-ui,-apple-system,Segoe UI,Helvetica,Arial,sans-serif" font-size="13" fill="#59636e" text-anchor="start">Portofolio web Budi</text><circle cx="404" cy="76" r="12" fill="#e11d48" stroke="#ffffff" stroke-width="2"/><text x="404" y="80.5" font-family="system-ui,-apple-system,Segoe UI,Helvetica,Arial,sans-serif" font-size="13" fill="#ffffff" text-anchor="middle" font-weight="600">1</text><circle cx="784" cy="120" r="12" fill="#e11d48" stroke="#ffffff" stroke-width="2"/><text x="784" y="124.5" font-family="system-ui,-apple-system,Segoe UI,Helvetica,Arial,sans-serif" font-size="13" fill="#ffffff" text-anchor="middle" font-weight="600">2</text></svg>
