<svg xmlns="http://www.w3.org/2000/svg" viewBox="0 0 800 340" width="800" height="340" role="img" aria-label="Halaman Settings repositori bagian Features dengan centang Discussions dan tombol Set up discussions"><title>Halaman Settings repositori bagian Features dengan centang Discussions dan tombol Set up discussions</title><defs><marker id="ujung" viewBox="0 0 10 10" refX="9" refY="5" markerWidth="7" markerHeight="7" orient="auto-start-reverse"><path d="M0 0 L10 5 L0 10 z" fill="#e11d48"/></marker></defs><rect x="0.5" y="0.5" width="799" height="339" rx="10" fill="#ffffff" stroke="#d0d7de"/><path d="M0.5 10.5 a10 10 0 0 1 10 -10 h779 a10 10 0 0 1 10 10 v26 h-799 z" fill="#f6f8fa" stroke="#d0d7de"/><circle cx="18" cy="18" r="5" fill="#ff5f57"/><circle cx="34" cy="18" r="5" fill="#febc2e"/><circle cx="50" cy="18" r="5" fill="#28c840"/><rect x="80" y="8" width="640" height="20" rx="10" fill="#fff" stroke="#d0d7de"/><text x="400.0" y="22" font-family="system-ui,-apple-system,Segoe UI,Helvetica,Arial,sans-serif" font-size="12" fill="#59636e" text-anchor="middle">github.com/sari/resep/settings</text><path d="M22 47 h8 l4 4 v12 h-12 z" fill="none" stroke="#59636e"/><text x="42" y="60" font-family="system-ui,-apple-system,Segoe UI,Helvetica,Arial,sans-serif" font-size="18" fill="#0969da" text-anchor="start">sari / </text><text x="106.39999999999999" y="60" font-family="system-ui,-apple-system,Segoe UI,Helvetica,Arial,sans-serif" font-size="18" fill="#0969da" text-anchor="start" font-weight="600">resep</text><rect x="168.89999999999998" y="45" width="58" height="20" rx="10" fill="#ffffff" stroke="#d0d7de"/><text x="197.89999999999998" y="59" font-family="system-ui,-apple-system,Segoe UI,Helvetica,Arial,sans-serif" font-size="12" fill="#59636e" text-anchor="middle">Public</text><text x="41.6" y="101" font-family="system-ui,-apple-system,Segoe UI,Helvetica,Arial,sans-serif" font-size="13" fill="#1f2328" text-anchor="middle">Code</text><text x="100.1" y="101" font-family="system-ui,-apple-system,Segoe UI,Helvetica,Arial,sans-serif" font-size="13" fill="#1f2328" text-anchor="middle">Issues</text><text x="191.45" y="101" font-family="system-ui,-apple-system,Segoe UI,Helvetica,Arial,sans-serif" font-size="13" fill="#1f2328" text-anchor="middle">Pull requests</text><text x="286.45" y="101" font-family="system-ui,-apple-system,Segoe UI,Helvetica,Arial,sans-serif" font-size="13" fill="#1f2328" text-anchor="middle">Actions</text><text x="363.2" y="101" font-family="system-ui,-apple-system,Segoe UI,Helvetica,Arial,sans-serif" font-size="13" fill="#1f2328" text-anchor="middle">Projects</text><text x="429.0" y="101" font-family="system-ui,-apple-system,Segoe UI,Helvetica,Arial,sans-serif" font-size="13" fill="#1f2328" text-anchor="middle">Wiki</text><text x="538.5999999999999" y="101" font-family="system-ui,-apple-system,Segoe UI,Helvetica,Arial,sans-serif" font-size="13" fill="#1f2328" text-anchor="middle">Security and quality</text><text x="662.8" y="101" font-family="system-ui,-apple-system,Segoe UI,Helvetica,Arial,sans-serif" font-size="13" fill="#1f2328" text-anchor="middle">Insights</text><rect x="706.9999999999999" y="110" width="72.4" height="3" rx="1.5" fill="#fd8c73"/><text x="743.1999999999999" y="101" font-family="system-ui,-apple-system,Segoe UI,Helvetica,Arial,sans-serif" font-size="13" fill="#1f2328" text-anchor="middle" font-weight="600">Settings</text><line x1="0" y1="113" x2="800" y2="113" stroke="#d0d7de"/><rect x="20" y="132" width="150" height="16" rx="4" fill="#f6f8fa" stroke="#f6f8fa"/><rect x="20" y="162" width="130" height="16" rx="4" fill="#f6f8fa" stroke="#f6f8fa"/><rect x="20" y="192" width="150" height="16" rx="4" fill="#f6f8fa" stroke="#f6f8fa"/><rect x="20" y="222" width="130" height="16" rx="4" fill="#f6f8fa" stroke="#f6f8fa"/><rect x="20" y="252" width="150" height="16" rx="4" fill="#f6f8fa" stroke="#f6f8fa"/><text x="200" y="150" font-family="system-ui,-apple-system,Segoe UI,Helvetica,Arial,sans-serif" font-size="18" fill="#1f2328" text-anchor="start" font-weight="600">Features</text><line x1="200" y1="162" x2="780" y2="162" stroke="#d0d7de"/><rect x="200" y="178" width="14" height="14" rx="3" fill="#0969da" stroke="#0969da"/><path d="M203 185 l3 3 l5 -6" stroke="#fff" stroke-width="2" fill="none"/><text x="222" y="190" font-family="system-ui,-apple-system,Segoe UI,Helvetica,Arial,sans-serif" font-size="13" fill="#1f2328" text-anchor="start"></text><rect x="226" y="179" width="180" height="12" rx="4" fill="#f6f8fa" stroke="#f6f8fa"/><rect x="200" y="218" width="14" height="14" rx="3" fill="#0969da" stroke="#0969da"/><path d="M203 225 l3 3 l5 -6" stroke="#fff" stroke-width="2" fill="none"/><text x="222" y="230" font-family="system-ui,-apple-system,Segoe UI,Helvetica,Arial,sans-serif" font-size="13" fill="#1f2328" text-anchor="start"></text><rect x="226" y="219" width="140" height="12" rx="4" fill="#f6f8fa" stroke="#f6f8fa"/><rect x="200" y="262" width="14" height="14" rx="3" fill="#0969da" stroke="#0969da"/><path d="M203 269 l3 3 l5 -6" stroke="#fff" stroke-width="2" fill="none"/><text x="222" y="274" font-family="system-ui,-apple-system,Segoe UI,Helvetica,Arial,sans-serif" font-size="13" fill="#1f2328" text-anchor="start">Discussions</text><text x="222" y="292" font-family="system-ui,-apple-system,Segoe UI,Helvetica,Arial,sans-serif" font-size="12" fill="#59636e" text-anchor="start">(forum komunitas untuk tanya jawab, ide, dan pengumuman)</text><circle cx="330" cy="269" r="12" fill="#e11d48" stroke="#ffffff" stroke-width="2"/><text x="330" y="273.5" font-family="system-ui,-apple-system,Segoe UI,Helvetica,Arial,sans-serif" font-size="13" fill="#ffffff" text-anchor="middle" font-weight="600">1</text><rect x="610" y="256" width="160" height="28" rx="6" fill="#f6f8fa" stroke="#d0d7de"/><text x="690.0" y="274.5" font-family="system-ui,-apple-system,Segoe UI,Helvetica,Arial,sans-serif" font-size="13" fill="#1f2328" text-anchor="middle" font-weight="600">Set up discussions</text><circle cx="590" cy="270" r="12" fill="#e11d48" stroke="#ffffff" stroke-width="2"/><text x="590" y="274.5" font-family="system-ui,-apple-system,Segoe UI,Helvetica,Arial,sans-serif" font-size="13" fill="#ffffff" text-anchor="middle" font-weight="600">2</text></svg>
