<svg xmlns="http://www.w3.org/2000/svg" viewBox="0 0 800 330" width="800" height="330" role="img" aria-label="Kotak merge di pull request: tombol Merge pull request dengan dropdown Create a merge commit, Squash and merge, dan Rebase and merge"><title>Kotak merge di pull request: tombol Merge pull request dengan dropdown Create a merge commit, Squash and merge, dan Rebase and merge</title><defs><marker id="ujung" viewBox="0 0 10 10" refX="9" refY="5" markerWidth="7" markerHeight="7" orient="auto-start-reverse"><path d="M0 0 L10 5 L0 10 z" fill="#e11d48"/></marker></defs><rect x="0.5" y="0.5" width="799" height="329" rx="10" fill="#ffffff" stroke="#d0d7de"/><path d="M0.5 10.5 a10 10 0 0 1 10 -10 h779 a10 10 0 0 1 10 10 v26 h-799 z" fill="#f6f8fa" stroke="#d0d7de"/><circle cx="18" cy="18" r="5" fill="#ff5f57"/><circle cx="34" cy="18" r="5" fill="#febc2e"/><circle cx="50" cy="18" r="5" fill="#28c840"/><rect x="80" y="8" width="640" height="20" rx="10" fill="#fff" stroke="#d0d7de"/><text x="400.0" y="22" font-family="system-ui,-apple-system,Segoe UI,Helvetica,Arial,sans-serif" font-size="12" fill="#59636e" text-anchor="middle">github.com/sari/resep/pull/13</text><rect x="20" y="52" width="760" height="64" rx="6" fill="#ffffff" stroke="#d0d7de"/><circle cx="48" cy="84" r="12" fill="#1f883d"/><path d="M42 84 l4 4 l8 -8" stroke="#fff" stroke-width="2.5" fill="none"/><text x="72" y="80" font-family="system-ui,-apple-system,Segoe UI,Helvetica,Arial,sans-serif" font-size="14" fill="#1f2328" text-anchor="start" font-weight="600">Tidak ada konflik dengan base branch</text><text x="72" y="100" font-family="system-ui,-apple-system,Segoe UI,Helvetica,Arial,sans-serif" font-size="12" fill="#59636e" text-anchor="start">(kalau ada konflik, di sini muncul tombol Resolve conflicts)</text><rect x="20" y="134" width="160" height="28" rx="6" fill="#1f883d" stroke="#1f883d"/><text x="100.0" y="152.5" font-family="system-ui,-apple-system,Segoe UI,Helvetica,Arial,sans-serif" font-size="13" fill="#ffffff" text-anchor="middle" font-weight="600">Merge pull request</text><rect x="180" y="134" width="32" height="28" rx="6" fill="#1f883d" stroke="#1f883d"/><text x="196" y="153" font-family="system-ui,-apple-system,Segoe UI,Helvetica,Arial,sans-serif" font-size="13" fill="#ffffff" text-anchor="middle" font-weight="600">▾</text><circle cx="232" cy="148" r="12" fill="#e11d48" stroke="#ffffff" stroke-width="2"/><text x="232" y="152.5" font-family="system-ui,-apple-system,Segoe UI,Helvetica,Arial,sans-serif" font-size="13" fill="#ffffff" text-anchor="middle" font-weight="600">1</text><rect x="20" y="170" width="460" height="150" rx="6" fill="#ffffff" stroke="#d0d7de"/><text x="40" y="192" font-family="system-ui,-apple-system,Segoe UI,Helvetica,Arial,sans-serif" font-size="13" fill="#1f2328" text-anchor="start" font-weight="600">Create a merge commit</text><text x="40" y="210" font-family="system-ui,-apple-system,Segoe UI,Helvetica,Arial,sans-serif" font-size="12" fill="#59636e" text-anchor="start">semua commit + 1 commit merge</text><line x1="20" y1="220" x2="480" y2="220" stroke="#d0d7de"/><text x="40" y="242" font-family="system-ui,-apple-system,Segoe UI,Helvetica,Arial,sans-serif" font-size="13" fill="#1f2328" text-anchor="start" font-weight="600">Squash and merge</text><text x="40" y="260" font-family="system-ui,-apple-system,Segoe UI,Helvetica,Arial,sans-serif" font-size="12" fill="#59636e" text-anchor="start">semua commit dipadatkan jadi 1 commit</text><line x1="20" y1="270" x2="480" y2="270" stroke="#d0d7de"/><text x="40" y="292" font-family="system-ui,-apple-system,Segoe UI,Helvetica,Arial,sans-serif" font-size="13" fill="#1f2328" text-anchor="start" font-weight="600">Rebase and merge</text><text x="40" y="310" font-family="system-ui,-apple-system,Segoe UI,Helvetica,Arial,sans-serif" font-size="12" fill="#59636e" text-anchor="start">commit disalin satu per satu ke main</text><circle cx="500" cy="245" r="12" fill="#e11d48" stroke="#ffffff" stroke-width="2"/><text x="500" y="249.5" font-family="system-ui,-apple-system,Segoe UI,Helvetica,Arial,sans-serif" font-size="13" fill="#ffffff" text-anchor="middle" font-weight="600">2</text></svg>
