<svg xmlns="http://www.w3.org/2000/svg" viewBox="0 0 800 335" width="800" height="335" role="img" aria-label="Tab Actions berisi workflow Halo dan dua run yang berhasil dengan tanda centang hijau"><title>Tab Actions berisi workflow Halo dan dua run yang berhasil dengan tanda centang hijau</title><defs><marker id="ujung" viewBox="0 0 10 10" refX="9" refY="5" markerWidth="7" markerHeight="7" orient="auto-start-reverse"><path d="M0 0 L10 5 L0 10 z" fill="#e11d48"/></marker></defs><rect x="0.5" y="0.5" width="799" height="334" rx="10" fill="#ffffff" stroke="#d0d7de"/><path d="M0.5 10.5 a10 10 0 0 1 10 -10 h779 a10 10 0 0 1 10 10 v26 h-799 z" fill="#f6f8fa" stroke="#d0d7de"/><circle cx="18" cy="18" r="5" fill="#ff5f57"/><circle cx="34" cy="18" r="5" fill="#febc2e"/><circle cx="50" cy="18" r="5" fill="#28c840"/><rect x="80" y="8" width="640" height="20" rx="10" fill="#fff" stroke="#d0d7de"/><text x="400.0" y="22" font-family="system-ui,-apple-system,Segoe UI,Helvetica,Arial,sans-serif" font-size="12" fill="#59636e" text-anchor="middle">github.com/budi/kalkulator/actions</text><path d="M22 47 h8 l4 4 v12 h-12 z" fill="none" stroke="#59636e"/><text x="42" y="60" font-family="system-ui,-apple-system,Segoe UI,Helvetica,Arial,sans-serif" font-size="18" fill="#0969da" text-anchor="start">budi / </text><text x="106.39999999999999" y="60" font-family="system-ui,-apple-system,Segoe UI,Helvetica,Arial,sans-serif" font-size="18" fill="#0969da" text-anchor="start" font-weight="600">kalkulator</text><rect x="221.39999999999998" y="45" width="58" height="20" rx="10" fill="#ffffff" stroke="#d0d7de"/><text x="250.39999999999998" y="59" font-family="system-ui,-apple-system,Segoe UI,Helvetica,Arial,sans-serif" font-size="12" fill="#59636e" text-anchor="middle">Public</text><text x="41.6" y="101" font-family="system-ui,-apple-system,Segoe UI,Helvetica,Arial,sans-serif" font-size="13" fill="#1f2328" text-anchor="middle">Code</text><text x="100.1" y="101" font-family="system-ui,-apple-system,Segoe UI,Helvetica,Arial,sans-serif" font-size="13" fill="#1f2328" text-anchor="middle">Issues</text><text x="191.45" y="101" font-family="system-ui,-apple-system,Segoe UI,Helvetica,Arial,sans-serif" font-size="13" fill="#1f2328" text-anchor="middle">Pull requests</text><rect x="253.89999999999998" y="110" width="65.1" height="3" rx="1.5" fill="#fd8c73"/><text x="286.45" y="101" font-family="system-ui,-apple-system,Segoe UI,Helvetica,Arial,sans-serif" font-size="13" fill="#1f2328" text-anchor="middle" font-weight="600">Actions</text><text x="363.2" y="101" font-family="system-ui,-apple-system,Segoe UI,Helvetica,Arial,sans-serif" font-size="13" fill="#1f2328" text-anchor="middle">Projects</text><text x="429.0" y="101" font-family="system-ui,-apple-system,Segoe UI,Helvetica,Arial,sans-serif" font-size="13" fill="#1f2328" text-anchor="middle">Wiki</text><text x="538.5999999999999" y="101" font-family="system-ui,-apple-system,Segoe UI,Helvetica,Arial,sans-serif" font-size="13" fill="#1f2328" text-anchor="middle">Security and quality</text><text x="662.8" y="101" font-family="system-ui,-apple-system,Segoe UI,Helvetica,Arial,sans-serif" font-size="13" fill="#1f2328" text-anchor="middle">Insights</text><text x="743.1999999999999" y="101" font-family="system-ui,-apple-system,Segoe UI,Helvetica,Arial,sans-serif" font-size="13" fill="#1f2328" text-anchor="middle">Settings</text><line x1="0" y1="113" x2="800" y2="113" stroke="#d0d7de"/><circle cx="286.45" cy="130" r="12" fill="#e11d48" stroke="#ffffff" stroke-width="2"/><text x="286.45" y="134.5" font-family="system-ui,-apple-system,Segoe UI,Helvetica,Arial,sans-serif" font-size="13" fill="#ffffff" text-anchor="middle" font-weight="600">1</text><text x="28" y="168" font-family="system-ui,-apple-system,Segoe UI,Helvetica,Arial,sans-serif" font-size="12" fill="#59636e" text-anchor="start" font-weight="600">Workflow</text><rect x="20" y="178" width="190" height="30" rx="6" fill="#f6f8fa" stroke="#f6f8fa"/><rect x="20" y="183" width="3" height="20" rx="1.5" fill="#0969da"/><text x="32" y="198" font-family="system-ui,-apple-system,Segoe UI,Helvetica,Arial,sans-serif" font-size="13" fill="#1f2328" text-anchor="start" font-weight="600">Halo</text><circle cx="190" cy="193" r="12" fill="#e11d48" stroke="#ffffff" stroke-width="2"/><text x="190" y="197.5" font-family="system-ui,-apple-system,Segoe UI,Helvetica,Arial,sans-serif" font-size="13" fill="#ffffff" text-anchor="middle" font-weight="600">2</text><rect x="230" y="150" width="550" height="164" rx="6" fill="#ffffff" stroke="#d0d7de"/><rect x="230" y="150" width="550" height="36" rx="6" fill="#f6f8fa" stroke="#d0d7de"/><text x="246" y="173" font-family="system-ui,-apple-system,Segoe UI,Helvetica,Arial,sans-serif" font-size="14" fill="#1f2328" text-anchor="start" font-weight="600">Halo</text><line x1="230" y1="186" x2="780" y2="186" stroke="#d0d7de"/><circle cx="262" cy="211" r="8" fill="#1f883d"/><path d="M258 211 l3 3 l5 -6" stroke="#fff" stroke-width="2" fill="none"/><text x="282" y="215" font-family="system-ui,-apple-system,Segoe UI,Helvetica,Arial,sans-serif" font-size="14" fill="#1f2328" text-anchor="start" font-weight="600">Ubah pesan sapaan</text><text x="282" y="235" font-family="system-ui,-apple-system,Segoe UI,Helvetica,Arial,sans-serif" font-size="12" fill="#59636e" text-anchor="start">Halo #2 · main · budi</text><text x="760" y="215" font-family="system-ui,-apple-system,Segoe UI,Helvetica,Arial,sans-serif" font-size="12" fill="#59636e" text-anchor="end">12s</text><line x1="230" y1="250" x2="780" y2="250" stroke="#d0d7de"/><circle cx="262" cy="275" r="8" fill="#1f883d"/><path d="M258 275 l3 3 l5 -6" stroke="#fff" stroke-width="2" fill="none"/><text x="282" y="279" font-family="system-ui,-apple-system,Segoe UI,Helvetica,Arial,sans-serif" font-size="14" fill="#1f2328" text-anchor="start" font-weight="600">Tambah workflow Halo</text><text x="282" y="299" font-family="system-ui,-apple-system,Segoe UI,Helvetica,Arial,sans-serif" font-size="12" fill="#59636e" text-anchor="start">Halo #1 · main · budi</text><text x="760" y="279" font-family="system-ui,-apple-system,Segoe UI,Helvetica,Arial,sans-serif" font-size="12" fill="#59636e" text-anchor="end">15s</text><circle cx="240" cy="211" r="12" fill="#e11d48" stroke="#ffffff" stroke-width="2"/><text x="240" y="215.5" font-family="system-ui,-apple-system,Segoe UI,Helvetica,Arial,sans-serif" font-size="13" fill="#ffffff" text-anchor="middle" font-weight="600">3</text></svg>
