<svg xmlns="http://www.w3.org/2000/svg" viewBox="0 0 800 330" width="800" height="330" role="img" aria-label="Pengaturan Pages dengan Source diganti menjadi GitHub Actions"><title>Pengaturan Pages dengan Source diganti menjadi GitHub Actions</title><defs><marker id="ujung" viewBox="0 0 10 10" refX="9" refY="5" markerWidth="7" markerHeight="7" orient="auto-start-reverse"><path d="M0 0 L10 5 L0 10 z" fill="#e11d48"/></marker></defs><rect x="0.5" y="0.5" width="799" height="329" rx="10" fill="#ffffff" stroke="#d0d7de"/><path d="M0.5 10.5 a10 10 0 0 1 10 -10 h779 a10 10 0 0 1 10 10 v26 h-799 z" fill="#f6f8fa" stroke="#d0d7de"/><circle cx="18" cy="18" r="5" fill="#ff5f57"/><circle cx="34" cy="18" r="5" fill="#febc2e"/><circle cx="50" cy="18" r="5" fill="#28c840"/><rect x="80" y="8" width="640" height="20" rx="10" fill="#fff" stroke="#d0d7de"/><text x="400.0" y="22" font-family="system-ui,-apple-system,Segoe UI,Helvetica,Arial,sans-serif" font-size="12" fill="#59636e" text-anchor="middle">github.com/budi/portofolio/settings/pages</text><text x="28" y="68" font-family="system-ui,-apple-system,Segoe UI,Helvetica,Arial,sans-serif" font-size="12" fill="#59636e" text-anchor="start" font-weight="600">Code and automation</text><text x="32" y="98" font-family="system-ui,-apple-system,Segoe UI,Helvetica,Arial,sans-serif" font-size="13" fill="#1f2328" text-anchor="start">Rulesets</text><text x="32" y="130" font-family="system-ui,-apple-system,Segoe UI,Helvetica,Arial,sans-serif" font-size="13" fill="#1f2328" text-anchor="start">Webhooks</text><rect x="20" y="142" width="190" height="30" rx="6" fill="#f6f8fa" stroke="#f6f8fa"/><rect x="20" y="147" width="3" height="20" rx="1.5" fill="#0969da"/><text x="32" y="162" font-family="system-ui,-apple-system,Segoe UI,Helvetica,Arial,sans-serif" font-size="13" fill="#1f2328" text-anchor="start" font-weight="600">Pages</text><text x="32" y="194" font-family="system-ui,-apple-system,Segoe UI,Helvetica,Arial,sans-serif" font-size="13" fill="#1f2328" text-anchor="start">···</text><line x1="225" y1="40" x2="225" y2="320" stroke="#d0d7de"/><text x="250" y="76" font-family="system-ui,-apple-system,Segoe UI,Helvetica,Arial,sans-serif" font-size="20" fill="#1f2328" text-anchor="start" font-weight="600">Pages</text><line x1="250" y1="90" x2="780" y2="90" stroke="#d0d7de"/><text x="250" y="118" font-family="system-ui,-apple-system,Segoe UI,Helvetica,Arial,sans-serif" font-size="15" fill="#1f2328" text-anchor="start" font-weight="600">Build and deployment</text><text x="250" y="148" font-family="system-ui,-apple-system,Segoe UI,Helvetica,Arial,sans-serif" font-size="13" fill="#1f2328" text-anchor="start" font-weight="600">Source</text><rect x="250" y="158" width="220" height="30" rx="6" fill="#f6f8fa" stroke="#d0d7de"/><text x="262" y="177.5" font-family="system-ui,-apple-system,Segoe UI,Helvetica,Arial,sans-serif" font-size="13" fill="#1f2328" text-anchor="start" font-weight="600">GitHub Actions</text><path d="M450 171.0 l5 6 l5 -6 z" fill="#59636e"/><circle cx="492" cy="173" r="12" fill="#e11d48" stroke="#ffffff" stroke-width="2"/><text x="492" y="177.5" font-family="system-ui,-apple-system,Segoe UI,Helvetica,Arial,sans-serif" font-size="13" fill="#ffffff" text-anchor="middle" font-weight="600">1</text><rect x="250" y="194" width="260" height="78" rx="6" fill="#ffffff" stroke="#d0d7de"/><text x="274" y="222" font-family="system-ui,-apple-system,Segoe UI,Helvetica,Arial,sans-serif" font-size="13" fill="#1f2328" text-anchor="start">Deploy from a branch</text><rect x="251" y="238" width="258" height="33" rx="0" fill="#f6f8fa" stroke="#f6f8fa"/><path d="M258 254 l3 3 l6 -7" stroke="#0969da" stroke-width="2" fill="none"/><text x="274" y="259" font-family="system-ui,-apple-system,Segoe UI,Helvetica,Arial,sans-serif" font-size="13" fill="#1f2328" text-anchor="start" font-weight="600">GitHub Actions</text><circle cx="532" cy="255" r="12" fill="#e11d48" stroke="#ffffff" stroke-width="2"/><text x="532" y="259.5" font-family="system-ui,-apple-system,Segoe UI,Helvetica,Arial,sans-serif" font-size="13" fill="#ffffff" text-anchor="middle" font-weight="600">2</text><text x="250" y="300" font-family="system-ui,-apple-system,Segoe UI,Helvetica,Arial,sans-serif" font-size="12" fill="#59636e" text-anchor="start">Setelah dipilih, website dibangun dan di-deploy oleh workflow di .github/workflows/</text></svg>
